<svg width="298" height="295" viewBox="0 0 298 295" fill="none" xmlns="http://www.w3.org/2000/svg">
<g clip-path="url(#clip0_23_562)">
<circle cx="195.7" cy="99.98" r="67.98" fill="#0455BF"/>
<path d="M147.803 51.6013C160.093 39.4825 176.991 32 195.641 32C233.218 32 263.68 62.3767 263.68 99.8482C263.68 114.369 259.106 127.824 251.315 138.859C239.025 150.978 222.128 158.461 203.478 158.461C165.9 158.461 135.438 128.084 135.438 90.6124C135.438 76.0917 140.013 62.6364 147.803 51.6013Z" fill="#7EB0F2"/>
<path d="M245.585 143.913C234.002 153.024 219.377 158.461 203.478 158.461C165.9 158.461 135.438 128.089 135.438 90.6237C135.438 76.9942 139.47 64.3036 146.409 53.6724C157.992 44.5615 172.617 39.1245 188.516 39.1245C226.093 39.1245 256.555 69.4961 256.555 106.961C256.555 120.591 252.524 133.282 245.585 143.913Z" fill="#5096F2"/>
<path d="M225.422 263C201.141 263 177.474 257.587 154.421 246.76C131.36 235.941 110.938 221.636 93.1545 203.846C75.3637 186.062 61.0588 165.64 50.2398 142.579C39.4133 119.526 34 95.8587 34 71.578C34 68.19 35.1293 65.3667 37.388 63.108C39.6467 60.8493 42.47 59.72 45.858 59.72H91.596C94.2311 59.72 96.5839 60.567 98.6543 62.261C100.725 63.955 101.948 66.1196 102.325 68.7547L109.665 108.281C110.042 110.916 109.997 113.314 109.53 115.475C109.055 117.644 107.971 119.575 106.277 121.269L79.1733 148.937C87.0787 162.489 96.9603 175.194 108.818 187.052C120.676 198.91 133.758 209.168 148.063 217.827L174.602 191.287C176.296 189.593 178.509 188.321 181.242 187.47C183.968 186.627 186.648 186.394 189.283 186.77L228.245 194.675C230.88 195.24 233.045 196.509 234.739 198.481C236.433 200.461 237.28 202.769 237.28 205.404V251.142C237.28 254.53 236.151 257.353 233.892 259.612C231.633 261.871 228.81 263 225.422 263Z" fill="#0455BF"/>
<path d="M174.602 191.287L148.063 217.827C133.758 209.168 120.676 198.91 108.818 187.052C96.9604 175.194 87.0787 162.489 79.1734 148.937L106.277 121.269C107.971 119.575 109.056 117.644 109.53 115.475C109.997 113.314 110.042 110.916 109.665 108.281L102.325 68.7547C101.948 66.1196 100.725 63.955 98.6544 62.261C96.5839 60.567 94.2312 59.72 91.596 59.72L47.2056 59.72C47.4014 83.5309 52.8129 106.751 63.4399 129.379C74.2589 152.44 88.5638 172.862 106.355 190.646C124.138 208.436 144.56 222.741 167.621 233.56C190.249 244.187 213.469 249.599 237.28 249.794V205.404C237.28 202.769 236.433 200.461 234.739 198.481C233.045 196.509 230.88 195.24 228.245 194.675L189.283 186.77C186.648 186.394 183.968 186.627 181.243 187.47C178.51 188.321 176.296 189.593 174.602 191.287Z" fill="#7EB0F2"/>
<path d="M230.674 249.606V212.004C230.674 209.369 229.827 207.061 228.133 205.081C226.439 203.109 224.275 201.84 221.64 201.275L182.678 193.37C180.043 192.994 177.362 193.227 174.637 194.07C172.025 194.883 169.888 196.081 168.225 197.664L148.063 217.827L148.059 217.825L144.739 221.145C152.053 225.697 159.681 229.835 167.621 233.56C188.152 243.202 209.17 248.551 230.674 249.606Z" fill="#3084F2"/>
<path d="M75.8247 152.213L99.6718 127.869C101.366 126.175 102.45 124.244 102.924 122.075C103.391 119.914 103.436 117.516 103.06 114.881L95.7192 75.3547C95.3427 72.7196 94.1193 70.555 92.0488 68.861C89.9784 67.167 87.6256 66.32 84.9905 66.32L47.3942 66.32C48.4484 87.8265 53.797 108.846 63.4399 129.379C67.1567 137.302 71.285 144.913 75.8247 152.213Z" fill="#3084F2"/>
</g>
<defs>
<clipPath id="clip0_23_562">
<rect width="298" height="295" fill="white"/>
</clipPath>
</defs>
</svg>
