<svg width="298" height="295" viewBox="0 0 298 295" fill="none" xmlns="http://www.w3.org/2000/svg">
<g clip-path="url(#clip0_12_255)">
<rect x="28" y="98" width="241" height="145" rx="23" fill="#0455BF"/>
<path fill-rule="evenodd" clip-rule="evenodd" d="M28.2177 121.435V199.671C28.2177 212.373 38.5151 222.671 51.2176 222.671H245.782C258.485 222.671 268.782 212.373 268.782 199.671V121.435C268.782 108.733 258.485 98.4353 245.782 98.4353H51.2177C38.5151 98.4353 28.2177 108.733 28.2177 121.435Z" fill="#7EB0F2"/>
<path fill-rule="evenodd" clip-rule="evenodd" d="M268.782 134.988C268.782 122.286 258.485 111.988 245.782 111.988H51.2177C38.5151 111.988 28.2177 122.286 28.2177 134.988V199.685C28.2253 212.381 38.5198 222.671 51.2176 222.671H245.782C258.485 222.671 268.782 212.373 268.782 199.671V134.988Z" fill="#3084F2"/>
<ellipse cx="151.5" cy="160" rx="69.5" ry="69" fill="#0455BF"/>
<circle cx="152" cy="160" r="56" fill="#5096F2"/>
<path fill-rule="evenodd" clip-rule="evenodd" d="M118.235 115.342C127.597 108.274 139.253 104.082 151.888 104.082C182.764 104.082 207.794 129.112 207.794 159.988C207.794 171.013 204.603 181.292 199.095 189.952C189.732 197.02 178.076 201.212 165.441 201.212C134.565 201.212 109.535 176.182 109.535 145.306C109.535 134.282 112.726 124.003 118.235 115.342Z" fill="#7EB0F2"/>
<circle cx="182.5" cy="128.5" r="16.5" fill="white"/>
<rect x="59" y="78" width="46" height="27" rx="6" fill="#0455BF"/>
<path fill-rule="evenodd" clip-rule="evenodd" d="M58.7118 84.1059V92.4353C58.7118 95.749 61.3981 98.4353 64.7118 98.4353H99.0176C102.331 98.4353 105.018 95.749 105.018 92.4353V84.1059C105.018 80.7922 102.331 78.1059 99.0176 78.1059H64.7118C61.3981 78.1059 58.7118 80.7922 58.7118 84.1059Z" fill="#7EB0F2"/>
<path fill-rule="evenodd" clip-rule="evenodd" d="M99.0176 98.4353C102.329 98.4353 105.014 95.7527 105.018 92.4421L105.018 92.4353L105.018 87.4941C105.018 84.1804 102.331 81.4941 99.0176 81.4941H64.7118C61.4001 81.4941 58.7152 84.177 58.7118 87.4878V92.4353C58.7118 95.749 61.398 98.4353 64.7118 98.4353H99.0176Z" fill="#3084F2"/>
<circle cx="175.5" cy="60.5" r="9.5" fill="#5096F2"/>
<circle cx="207.5" cy="60.5" r="9.5" fill="#5096F2"/>
<circle cx="238.5" cy="60.5" r="9.5" fill="#5096F2"/>
</g>
<defs>
<clipPath id="clip0_12_255">
<rect width="298" height="295" fill="white"/>
</clipPath>
</defs>
</svg>
