<svg width="298" height="295" viewBox="0 0 298 295" fill="none" xmlns="http://www.w3.org/2000/svg">
<g clip-path="url(#clip0_9_16)">
<path fill-rule="evenodd" clip-rule="evenodd" d="M26 295H272C286.359 295 298 283.359 298 269V257H0V269C0 283.359 11.6406 295 26 295Z" fill="#0455BF"/>
<path fill-rule="evenodd" clip-rule="evenodd" d="M177.129 113.864C177.129 106.764 182.847 101.009 189.9 101.009H218.16C225.213 101.009 230.931 106.764 230.931 113.864V170.752C230.931 177.852 225.213 183.607 218.16 183.607H189.9C182.847 183.607 177.129 177.852 177.129 170.752V113.864ZM189.9 111.402C188.55 111.402 187.455 112.504 187.455 113.864V170.752C187.455 172.112 188.55 173.214 189.9 173.214H218.16C219.511 173.214 220.606 172.112 220.606 170.752V113.864C220.606 112.504 219.511 111.402 218.16 111.402H189.9Z" fill="#0455BF"/>
<rect x="146.818" y="153.296" width="115.182" height="141.704" rx="33" fill="#0455BF"/>
<path fill-rule="evenodd" clip-rule="evenodd" d="M167.641 155.896C164.862 160.732 163.273 166.339 163.273 172.317V247.826C163.273 266.051 178.047 280.826 196.273 280.826H245.455C249.755 280.826 253.864 280.003 257.631 278.507C260.411 273.671 262 268.064 262 262.087V186.577C262 168.352 247.225 153.577 229 153.577H179.818C175.517 153.577 171.409 154.4 167.641 155.896Z" fill="#7EB0F2"/>
<path fill-rule="evenodd" clip-rule="evenodd" d="M253.192 279.914C253.644 277.737 253.881 275.482 253.881 273.172V197.662C253.881 179.437 239.106 164.662 220.881 164.662H171.699C169.034 164.662 166.444 164.978 163.962 165.574C163.51 167.751 163.273 170.006 163.273 172.317V247.826C163.273 266.051 178.047 280.826 196.273 280.826H245.455C248.119 280.826 250.71 280.51 253.192 279.914Z" fill="#3084F2"/>
<rect x="238.509" y="202.551" width="23.4911" height="17.4289" fill="#0455BF"/>
<path d="M177.129 192.784C177.129 189.808 179.833 187.396 183.168 187.396C186.503 187.396 189.207 189.808 189.207 192.784V270.667C189.207 273.643 186.503 276.056 183.168 276.056C179.833 276.056 177.129 273.643 177.129 270.667V192.784Z" fill="white"/>
<path d="M197.991 192.784C197.991 189.808 200.695 187.396 204.03 187.396C207.365 187.396 210.069 189.808 210.069 192.784V270.667C210.069 273.643 207.365 276.056 204.03 276.056C200.695 276.056 197.991 273.643 197.991 270.667V192.784Z" fill="white"/>
<path d="M218.853 192.784C218.853 189.808 221.557 187.396 224.892 187.396C228.227 187.396 230.931 189.808 230.931 192.784V270.667C230.931 273.643 228.227 276.056 224.892 276.056C221.557 276.056 218.853 273.643 218.853 270.667V192.784Z" fill="white"/>
<path fill-rule="evenodd" clip-rule="evenodd" d="M100 257V65H109V257H100Z" fill="#0455BF"/>
<path d="M187 76H23C33.0168 40.2359 65.9356 14 105 14C144.064 14 176.983 40.2359 187 76Z" fill="#0455BF"/>
<path fill-rule="evenodd" clip-rule="evenodd" d="M64.4966 76.0055H186.697C178.536 46.7839 155.132 23.9227 125.597 16.5339C96.0612 23.9227 72.6572 46.7839 64.4966 76.0055Z" fill="#3084F2"/>
</g>
<defs>
<clipPath id="clip0_9_16">
<rect width="298" height="295" fill="white"/>
</clipPath>
</defs>
</svg>
