<svg width="43" height="32" viewBox="0 0 43 32" fill="none" xmlns="http://www.w3.org/2000/svg">
<path d="M5.5 31.5C2.73858 31.5 0.5 29.2614 0.5 26.5L0.5 22.5C0.499999 10.3497 10.3497 0.5 22.5 0.499999L37.5 0.499998C40.2614 0.499998 42.5 2.73857 42.5 5.5L42.5 26.5C42.5 29.2614 40.2614 31.5 37.5 31.5L5.5 31.5Z" fill="#0455BF"/>
<path fill-rule="evenodd" clip-rule="evenodd" d="M0.743627 28.0461C1.37814 28.3375 2.08416 28.5 2.82813 28.5L34.8281 28.5C37.5896 28.5 39.8281 26.2614 39.8281 23.5L39.8281 2.5C39.8281 1.9604 39.7426 1.44077 39.5845 0.953903C38.95 0.662485 38.244 0.499998 37.5 0.499998L22.5 0.499999C10.3497 0.5 0.499999 10.3497 0.5 22.5L0.5 26.5C0.5 27.0396 0.585476 27.5592 0.743627 28.0461Z" fill="#7EB0F2"/>
<path fill-rule="evenodd" clip-rule="evenodd" d="M39.8281 3H25C12.8497 3 3 12.8497 3 25V28.5L34.8281 28.5C37.5896 28.5 39.8281 26.2614 39.8281 23.5V3Z" fill="#3084F2"/>
<circle cx="21" cy="16" r="8" transform="rotate(-90 21 16)" fill="#7EB0F2"/>
</svg>
