<svg width="298" height="295" viewBox="0 0 298 295" fill="none" xmlns="http://www.w3.org/2000/svg">
<g clip-path="url(#clip0_12_127)">
<circle cx="149" cy="148" r="125" fill="#0455BF"/>
<path fill-rule="evenodd" clip-rule="evenodd" d="M88.9648 38.334C106.783 28.5589 127.242 23 149 23C218.036 23 274 78.9644 274 148C274 182.544 259.988 213.815 237.337 236.44C219.519 246.215 199.06 251.774 177.302 251.774C108.266 251.774 52.3019 195.809 52.3019 126.774C52.3019 92.2297 66.3141 60.9586 88.9648 38.334Z" fill="#3084F2"/>
<path fill-rule="evenodd" clip-rule="evenodd" d="M41.9568 139.745C39.7244 139.745 37.951 137.858 38.1691 135.636C38.5408 131.851 39.0812 128.115 39.7829 124.437C40.995 118.083 46.765 113.802 53.2339 113.802L66.4568 113.802C71.3414 113.802 75.3012 117.762 75.3012 122.646V122.646C75.3012 127.531 79.2609 131.491 84.1455 131.491V131.491C89.0301 131.491 92.9899 135.45 92.9899 140.335V144.462C92.9899 151.626 87.1823 157.434 80.0182 157.434H54.6644C49.7798 157.434 45.8201 153.474 45.8201 148.59V143.609C45.8201 141.475 44.0904 139.745 41.9568 139.745V139.745Z" fill="#7EB0F2"/>
<path fill-rule="evenodd" clip-rule="evenodd" d="M241.578 79.7885C247.616 87.7488 252.722 96.4549 256.734 105.744C262.327 118.696 251.629 131.675 237.521 131.675H228.009C220.845 131.675 215.038 125.868 215.038 118.704V118.704C215.038 111.54 209.23 105.732 202.066 105.732H159.613C152.449 105.732 146.642 99.9243 146.642 92.7602V92.7602C146.642 85.5961 152.449 79.7885 159.613 79.7885L241.578 79.7885ZM145.462 43.4363C145.462 36.2462 151.417 30.4085 158.544 31.3554C192.364 35.8484 221.913 53.8637 241.578 79.7885H178.481C171.968 79.7885 166.689 74.5088 166.689 67.996V66.8168C166.689 60.9553 161.937 56.2036 156.075 56.2036V56.2036C150.214 56.2036 145.462 51.4519 145.462 45.5904V43.4363Z" fill="#7EB0F2"/>
<path fill-rule="evenodd" clip-rule="evenodd" d="M134.154 259.156C128.352 258.469 124.236 253.372 124.236 247.53V247.53C124.236 240.756 129.727 235.264 136.501 235.264H149C156.164 235.264 161.972 229.457 161.972 222.292V222.292C161.972 215.128 156.164 209.321 149 209.321H106.547C99.3831 209.321 93.5755 203.513 93.5755 196.349V193.401C93.5755 187.865 98.0632 183.377 103.599 183.377V183.377C109.135 183.377 113.623 178.89 113.623 173.354V165.099C113.623 160.866 117.054 157.434 121.288 157.434V157.434C125.521 157.434 128.953 154.002 128.953 149.769V144.462C128.953 137.298 134.76 131.491 141.925 131.491H163.151C170.315 131.491 176.123 137.298 176.123 144.462V148C176.123 153.21 180.346 157.434 185.557 157.434V157.434C190.767 157.434 194.991 161.658 194.991 166.868V173.354C194.991 178.89 199.478 183.377 205.014 183.377V183.377C210.55 183.377 215.038 187.865 215.038 193.401V209.321V216.396C215.038 226.817 206.59 235.264 196.17 235.264H189.306C182.676 235.264 177.302 240.638 177.302 247.268V247.268C177.302 252.855 173.455 257.765 167.932 258.604C161.758 259.542 155.436 260.028 149 260.028C143.977 260.028 139.022 259.732 134.154 259.156Z" fill="#7EB0F2"/>
<path fill-rule="evenodd" clip-rule="evenodd" d="M217.396 88.4481C217.396 84.8661 214.492 81.9623 210.91 81.9623H197.349C192.139 81.9623 187.915 86.186 187.915 91.3962V96.7028C187.915 98.9823 189.763 100.83 192.042 100.83V100.83C194.322 100.83 196.17 102.678 196.17 104.958V107.316C196.17 110.898 199.074 113.802 202.656 113.802H233.906C239.116 113.802 243.34 109.578 243.34 104.368V104.368C243.34 99.1577 239.116 94.934 233.906 94.934H223.882C220.3 94.934 217.396 92.0302 217.396 88.4481V88.4481Z" fill="white"/>
<path fill-rule="evenodd" clip-rule="evenodd" d="M250.947 220.349C246.864 226.091 242.309 231.474 237.337 236.44C236.605 236.841 235.869 237.235 235.128 237.623H214.448C210.866 237.623 207.962 234.719 207.962 231.137V228.778C207.962 226.499 206.114 224.651 203.835 224.651C201.555 224.651 199.708 222.803 199.708 220.524V215.217C199.708 210.007 203.931 205.783 209.142 205.783H222.703C226.285 205.783 229.189 208.687 229.189 212.269C229.189 215.851 232.092 218.755 235.675 218.755H245.698C247.641 218.755 249.446 219.342 250.947 220.349Z" fill="white"/>
<rect x="75" y="190" width="47" height="19" rx="6" fill="white"/>
<rect x="145" y="148" width="29" height="19" rx="6" fill="white"/>
<path fill-rule="evenodd" clip-rule="evenodd" d="M91.217 66.0943C91.217 64.4375 89.8738 63.0943 88.217 63.0943H64.7358C63.079 63.0943 61.7358 64.4375 61.7358 66.0943V71.8868C61.7358 73.5437 63.079 74.8868 64.7358 74.8868H76.4245C78.0814 74.8868 79.4245 76.2299 79.4245 77.8868V81.3208C79.4245 82.9776 80.7677 84.3208 82.4245 84.3208H105.906C107.563 84.3208 108.906 82.9776 108.906 81.3208V75.5283C108.906 73.8715 107.563 72.5283 105.906 72.5283H94.217C92.5601 72.5283 91.217 71.1852 91.217 69.5283V66.0943Z" fill="white"/>
</g>
<defs>
<clipPath id="clip0_12_127">
<rect width="298" height="295" fill="white"/>
</clipPath>
</defs>
</svg>
